<svg xmlns="http://www.w3.org/2000/svg" viewBox="0 0 106 27" fill="none" style="height: calc(var(--typography-size-bodyM) * 1.65);"><title>Aputure</title><g clip-path="url(#a)"><path fill="currentColor" d="M4.935 20.847H.008L8.153 2.74l12.079 14.526 1.636 3.582h-4.85L10.973 7.188z"></path><path fill="#D80B2A" d="M5.875 0h5.35s1.276.11 1.909 1.315 7.103 15.95 7.103 15.95z"></path><path fill="currentColor" d="M26.473 26.105h-3.496V11.092s-.04-3.588 4.454-3.736h5.273c1.183.038 4.142.238 4.499 3.768v6.284s.038 3.821-4.826 3.744h-5.623l1.271-3.154h4.64s.92-.015.988-.886v-5.67s.038-.896-1.009-.949h-5.038s-1.11-.08-1.135 1.048V26.1zM38.993 7.357h3.57v9.748s-.02.91.987.9h4.933s.91.066.992-.906V7.356h3.55v10.047s.024 3.435-3.969 3.736h-5.905s-3.929.076-4.159-3.792zM66.305 7.357h3.569v9.748s-.02.91.988.9h4.932s.91.066.993-.906V7.356h3.549v10.047s.025 3.435-3.968 3.736h-5.906s-3.929.076-4.157-3.792zM54.664 7.357h2.678s-.161-2.024 2.225-2.267h1.15v2.267h3.397v3.193h-3.423v6.536s.01.962 1.037.914h2.342l1.101 3.14h-3.792s-3.535.124-4.05-3.588V10.55H54.67V7.356h-.005zM82.797 21.154h3.5v-9.695s-.01-.981 1.202-.953h2.352V7.357H87.1c-.162.01-4.144.005-4.304 3.798zM103.599 18.109H95.77s-.929.047-1.003-.858v-5.813s.058-.743.89-.776h5.424s.993-.047 1.066.825v.438s-.088.853-1.013.853h-4.84l-1.187 3.192h6.076s4.006.1 4.465-3.406V11.09s0-3.5-4.445-3.644h-5.457s-4.338-.109-4.528 3.911v5.46s-.506 4.303 4.43 4.431h8.934l-.984-3.14z"></path></g><defs><clipPath id="a"><path fill="currentColor" d="M0 0h106v26.105H0z"></path></clipPath></defs></svg>