<?xml version="1.0" encoding="UTF-8"?>
<svg id="_图层_1" data-name="图层_1" xmlns="http://www.w3.org/2000/svg" version="1.1" viewBox="0 0 87.2 24">
  <!-- Generator: Adobe Illustrator 29.3.0, SVG Export Plug-In . SVG Version: 2.1.0 Build 146)  -->
  <defs>
    <style>
      .st0 {
        fill: #f60;
        fill-rule: evenodd;
      }
    </style>
  </defs>
  <path id="_并集" data-name="并集" class="st0" d="M53.28,11.64c0,.34,0,.69.01,1.07.03,1.85.06,4.05-.5,5.63-1.44,4.06-5.69,6.38-9.87,5.41-4.18-.98-6.97-4.95-6.48-9.23.49-4.28,4.1-7.51,8.39-7.51,1.82,0,3.35.43,4.87,1.9V.98l3.58-.95v11.6ZM6.96,13.99l5.98-5.99c2.26,2.15,3.96,3.92,3.96,7.48,0,3.86-2.59,7.23-6.31,8.2-3.72.98-7.62-.69-9.51-4.06-1.88-3.37-1.26-7.58,1.51-10.26l5.86-5.88,2.52,2.53-5.98,5.99c-1.77,1.77-1.91,4.6-.34,6.55,1.57,1.94,4.36,2.38,6.45,1.01,2.09-1.37,2.81-4.11,1.67-6.34l-3.28,3.3-2.53-2.54ZM26.64,7c2.24,0,4.39.89,5.98,2.49,1.59,1.59,2.47,3.75,2.47,6,0,4.68-3.78,8.48-8.45,8.48-4.67,0-8.45-3.8-8.45-8.48s3.78-8.48,8.45-8.48ZM63.02,7c2.24,0,4.39.89,5.98,2.49,1.59,1.59,2.47,3.75,2.47,6,0,4.68-3.78,8.48-8.45,8.48-4.67,0-8.45-3.8-8.45-8.48s3.78-8.48,8.45-8.48ZM82.83,7.55h4.37s-6.23,7.99-6.23,7.99l6.23,7.87h-4.55s-3.91-5.02-3.91-5.02l-3.91,5h-4.55s6.23-7.86,6.23-7.86l-6.23-7.97h4.37s4.09,5.16,4.09,5.16l4.09-5.17h0ZM44.83,20.38c2.69,0,4.88-2.19,4.88-4.89,0-1.98-1.19-3.76-3.01-4.52-1.82-.76-3.92-.34-5.31,1.06-1.39,1.4-1.81,3.51-1.06,5.34.75,1.83,2.53,3.02,4.5,3.02h0ZM67.89,15.48c0-1.98-1.18-3.76-3.01-4.52-1.82-.76-3.92-.34-5.31,1.06-1.4,1.4-1.81,3.51-1.06,5.33.75,1.83,2.53,3.02,4.5,3.02,2.69,0,4.88-2.19,4.88-4.89h0ZM31.52,15.48c0-1.98-1.19-3.76-3.01-4.52-1.82-.76-3.92-.34-5.31,1.06-1.39,1.4-1.81,3.5-1.06,5.33.75,1.83,2.53,3.02,4.5,3.02,2.69,0,4.88-2.19,4.88-4.89Z"/>
</svg>