<?xml version="1.0" encoding="utf-8"?>
<!-- Generator: Adobe Illustrator 27.5.0, SVG Export Plug-In . SVG Version: 6.00 Build 0)  -->
<svg version="1.1" id="Layer_1" xmlns="http://www.w3.org/2000/svg" xmlns:xlink="http://www.w3.org/1999/xlink" x="0px" y="0px"
	 viewBox="0 0 611 103" style="enable-background:new 0 0 611 103;" xml:space="preserve">
<style type="text/css">
	.st0{fill-rule:evenodd;clip-rule:evenodd;}
</style>
<g>
	<path d="M190.7,97.9L228.2,5h-36.4l-37.5,92.9H190.7z"/>
	<path class="st0" d="M476.4,45h57.2l-8.1,20.2H468L476.4,45z"/>
	<path d="M174,5.2l-9.3,23.1h-48.4L88.1,98.1H49l28.2-69.8H29.1l9.3-23.1L174,5.2z M313.1,74.4L303.7,98h-84.9l44.4-23.6L313.1,74.4
		z M215,94.5L251.2,5h36l-26.5,65.2L215,94.5z M190.7,97.9L228.2,5h-36.4l-37.5,92.9H190.7z"/>
	<path class="st0" d="M537.7,48.6h0.2l6.5-15.9L581,13.3c2.2,4.4,2.2,9.5-0.1,15.3l-28.1,69.5H518l11.7-29.2L537.7,48.6z
		 M542.4,28.3h-57.2l-27.9-14.8c0.5-0.4,1-0.8,1.6-1.2c6.8-4.7,13.5-7.1,20.2-7.1h87.2c5.2,0,9.1,1.4,11.9,4.1L542.4,28.3z
		 M479.4,30.8l-6.3,15.5H473l-9.2,22.6h0.2l-11.7,29.2h-35.2l27.6-68.5c1.9-4.7,4.8-9,8.6-12.7L479.4,30.8z"/>
	<path d="M444.1,5.2l-9.3,23.1h-48.4l-28.2,69.8h-39.1l28.2-69.8h-48.1l9.3-23.1L444.1,5.2z"/>
	<path class="st0" d="M476.4,45h57.2l-8.1,20.2H468L476.4,45z"/>
</g>
</svg>
