<svg version="1.1" id="Layer_1" xmlns:x="ns_extend;" xmlns:i="ns_ai;" xmlns:graph="ns_graphs;" xmlns="http://www.w3.org/2000/svg" xmlns:xlink="http://www.w3.org/1999/xlink" x="0px" y="0px" viewBox="0 0 55.9 56" style="enable-background:new 0 0 55.9 56;" xml:space="preserve">
 <style type="text/css">
  .st0{fill-rule:evenodd;clip-rule:evenodd;fill:#0F2DB3;}
	.st1{fill-rule:evenodd;clip-rule:evenodd;fill:#FFFFFF;}
 </style>
 <metadata>
  <sfw xmlns="ns_sfw;">
   <slices>
   </slices>
   <sliceSourceBounds bottomLeftOrigin="true" height="56" width="55.9" x="446.1" y="-394.2">
   </sliceSourceBounds>
  </sfw>
 </metadata>
 <g>
  <path class="st0" d="M55.6,0H0v56l0.4-0.2c8.7-3.9,18-5.9,27.6-5.9c9.6,0,18.9,2,27.5,5.9l0.4,0.2l0.1-56L55.6,0">
  </path>
  <path class="st1" d="M6.9,17c-2.7,0-2.9,2.6-2.9,2.6H2.9v-3.9h9.7c0,0,0,3-2.9,6.2c0,0-2.7,3.2-2.8,4.5h1.6c2.3,0,2.5-2.6,2.5-2.6
		h1.3v3.9H2.4c0,0-0.3-3,3.1-6.6c0,0,2.2-2.4,2.7-4.2L6.9,17 M31.5,27.8v-1.3h-0.3c-0.5,0-1-0.4-1-1V18c0-0.5,0.5-1,1-1h0.3v-1.3
		h-6.4V17h0.3c0.6,0,1,0.4,1,1v7.5c0,0.5-0.4,1-1,1h-0.3v1.3H31.5 M23.8,27.8v-3.9h-1.3c0,0-0.3,2.6-2.6,2.6h-1.3v-4.1h0.5
		c0.5,0,1,0.4,1,1v0.5h1.3v-4.2h-1.3v0.5c0,0.5-0.5,1-1,1h-0.5V17H20c2.3,0,2.6,2.6,2.6,2.6h1.3v-3.9H13.6V17h0.3
		c0.5,0,0.9,0.4,0.9,1v7.5c0,0.5-0.4,1-0.9,1h-0.3v1.3L23.8,27.8 M38.2,17c2.7,0,2.9,2.6,2.9,2.6h1.2v-3.9h-9.2c0,0-1.5,1.9,2.4,6.2
		c0,0,2.7,3.2,2.8,4.5h-1.6c-2.3,0-2.5-2.6-2.5-2.6h-1.3v3.9h9.3c0,0,1.7-1.8-2.5-6.6c0,0-2.3-2.3-2.7-4.2L38.2,17 M49.1,17
		c2.6,0,2.8,2.6,2.8,2.6h1.3v-3.9h-9.3c0,0-1.5,1.9,2.4,6.2c0,0,2.7,3.2,2.8,4.5h-1.6c-2.2,0-2.5-2.6-2.5-2.6h-1.3v3.9H53
		c0,0,1.7-1.8-2.5-6.6c0,0-2.2-2.3-2.6-4.2L49.1,17">
  </path>
 </g>
</svg>